<?xml version="1.0" encoding="iso-8859-1"?>
<!-- Uploaded to: SVG Repo, www.svgrepo.com, Generator: SVG Repo Mixer Tools -->
<svg fill="#000000" height="800px" width="800px" version="1.1" id="Layer_1" xmlns="http://www.w3.org/2000/svg" xmlns:xlink="http://www.w3.org/1999/xlink" 
	 viewBox="0 0 492.308 492.308" xml:space="preserve">
<g>
	<g>
		<polygon points="256,238.529 256,60.798 236.308,60.798 236.308,258.221 391.606,258.221 391.606,238.529 		"/>
	</g>
</g>
<g>
	<g>
		<path d="M489.221,207.087l-19.442,3.096c1.88,11.827,2.837,23.923,2.837,35.971c0,124.875-101.591,226.462-226.462,226.462
			S19.692,371.029,19.692,246.154S121.284,19.692,246.154,19.692c78.236,0,149.533,39.721,190.942,104.837l-78.874-16.346l-4,19.288
			l110.038,22.808L487.063,40.24l-19.279-4l-15.62,75.351C406.944,42.224,330.239,0,246.154,0C110.423,0,0,110.423,0,246.154
			s110.423,246.154,246.154,246.154s246.154-110.423,246.154-246.154C492.308,233.077,491.269,219.933,489.221,207.087z"/>
	</g>
</g>
</svg>